<svg width="24" height="19" viewBox="0 0 24 19" fill="none" xmlns="http://www.w3.org/2000/svg">
<path d="M1.46133 1.50324C2.07316 0.857413 2.89704 0.5 3.75 0.5H20.25C21.103 0.5 21.9268 0.857413 22.5387 1.50324C23.1514 2.14999 23.5 3.03267 23.5 3.95833V5.51667H0.5V3.95833C0.5 3.03267 0.848619 2.14999 1.46133 1.50324ZM20.5433 14.6787L20.1803 14.3348L20.5433 14.6787C20.7745 14.4346 20.9 14.1091 20.9 13.775C20.9 13.4409 20.7745 13.1154 20.5433 12.8713L20.1803 13.2152L20.5433 12.8713C20.3112 12.6264 19.9905 12.4833 19.65 12.4833H16.35C16.0095 12.4833 15.6888 12.6264 15.4567 12.8713C15.2255 13.1154 15.1 13.4409 15.1 13.775C15.1 14.1091 15.2255 14.4346 15.4567 14.6787C15.6888 14.9236 16.0095 15.0667 16.35 15.0667H19.65C19.9905 15.0667 20.3112 14.9236 20.5433 14.6787ZM0.5 15.0417V8.1H23.5V15.0417C23.5 15.9673 23.1514 16.85 22.5387 17.4968C21.9268 18.1426 21.103 18.5 20.25 18.5H3.75C2.89704 18.5 2.07316 18.1426 1.46133 17.4968C0.848619 16.85 0.5 15.9673 0.5 15.0417Z" fill="white" stroke="white"/>
</svg>
