<svg width="15" height="16" viewBox="0 0 15 16" fill="none" xmlns="http://www.w3.org/2000/svg">
<path d="M5.21705 2.23123C5.58465 2.16207 5.95321 2.34657 6.11359 2.68003C6.15352 2.74055 6.18547 2.80582 6.20868 2.87429C6.31056 4.45515 6.41923 6.00921 6.52111 7.56327C6.51879 7.72481 6.54405 7.88558 6.59583 8.03886C6.71771 8.34044 7.02102 8.53178 7.34974 8.51446L12.3419 8.19293L12.3758 8.20632L12.4669 8.21291C12.6474 8.23613 12.8156 8.31894 12.9434 8.44924C13.0924 8.60125 13.1741 8.80543 13.1706 9.01685C12.9738 11.8984 10.8721 14.3061 8.01208 14.9263C5.15203 15.5466 2.22013 14.2306 0.815836 11.6963C0.402913 10.9663 0.141977 10.1624 0.0483405 9.33168C0.0120235 9.08552 -0.0038772 8.83685 0.000796491 8.58814C0.0102618 5.52404 2.18046 2.87928 5.21705 2.23123ZM8.18515 0.00062191C11.6133 0.103781 14.4783 2.6054 14.9975 5.94892C15.0008 5.96888 15.0008 5.98924 14.9975 6.00921L14.9966 6.10359C14.9853 6.22837 14.9344 6.34736 14.8497 6.4429C14.7439 6.56233 14.5942 6.63526 14.4338 6.64557L8.67418 7.02738L8.57929 7.02928C8.42207 7.02157 8.27132 6.9601 8.15388 6.85385C8.01296 6.72634 7.93307 6.54614 7.93385 6.35753L7.54671 0.670475V0.576696C7.55375 0.41675 7.62502 0.266137 7.74479 0.158069C7.86456 0.0500018 8.02299 -0.00664445 8.18515 0.00062191Z" fill="#4A3FFF"/>
</svg>
