<svg width="27" height="27" viewBox="0 0 27 27" fill="none" xmlns="http://www.w3.org/2000/svg">
<g clip-path="url(#clip0_230_39)">
<path fill-rule="evenodd" clip-rule="evenodd" d="M2.079 9.35V6.578C2.079 5.38453 2.5531 4.23994 3.39701 3.39602C4.24093 2.55211 5.38552 2.078 6.579 2.078H9.352C9.49108 2.08232 9.62962 2.05865 9.75939 2.00841C9.88916 1.95816 10.0075 1.88236 10.1074 1.7855C10.2073 1.68864 10.2868 1.57269 10.341 1.44454C10.3953 1.3164 10.4232 1.17866 10.4232 1.0395C10.4232 0.900347 10.3953 0.762609 10.341 0.634462C10.2868 0.506316 10.2073 0.390372 10.1074 0.293512C10.0075 0.196652 9.88916 0.120849 9.75939 0.0706018C9.62962 0.0203546 9.49108 -0.00331304 9.352 0.00100357H6.578C5.71425 0.00100353 4.85897 0.171163 4.06101 0.501763C3.26304 0.832363 2.53802 1.31693 1.92735 1.92778C1.31669 2.53863 0.832347 3.2638 0.501989 4.06186C0.171632 4.85993 0.0017327 5.71526 0.00199539 6.579V9.35C-0.00232122 9.48909 0.0213462 9.62763 0.0715934 9.7574C0.12184 9.88717 0.197643 10.0055 0.294504 10.1054C0.391364 10.2053 0.507307 10.2848 0.635454 10.339C0.763601 10.3933 0.901339 10.4212 1.0405 10.4212C1.17965 10.4212 1.31739 10.3933 1.44554 10.339C1.57368 10.2848 1.68963 10.2053 1.78649 10.1054C1.88335 10.0055 1.95915 9.88717 2.0094 9.7574C2.05964 9.62763 2.08331 9.48909 2.079 9.35Z" fill="#4A3FFF"/>
<path fill-rule="evenodd" clip-rule="evenodd" d="M17.655 2.078H20.424C21.6175 2.078 22.7621 2.55211 23.606 3.39602C24.4499 4.23994 24.924 5.38453 24.924 6.578V9.351C24.924 9.62643 25.0334 9.89058 25.2282 10.0853C25.4229 10.2801 25.6871 10.3895 25.9625 10.3895C26.2379 10.3895 26.5021 10.2801 26.6968 10.0853C26.8916 9.89058 27.001 9.62643 27.001 9.351V6.577C27.001 5.71326 26.8308 4.85798 26.5002 4.06002C26.1696 3.26205 25.6851 2.53703 25.0742 1.92636C24.4634 1.3157 23.7382 0.831355 22.9401 0.500998C22.1421 0.17064 21.2867 0.000740877 20.423 0.00100357H17.655C17.5159 -0.00331304 17.3774 0.0203544 17.2476 0.0706015C17.1178 0.120849 16.9995 0.196652 16.8996 0.293512C16.7997 0.390372 16.7202 0.506315 16.666 0.634462C16.6117 0.762609 16.5838 0.900347 16.5838 1.0395C16.5838 1.17866 16.6117 1.3164 16.666 1.44454C16.7202 1.57269 16.7997 1.68864 16.8996 1.7855C16.9995 1.88236 17.1178 1.95816 17.2476 2.00841C17.3774 2.05865 17.5159 2.08232 17.655 2.078Z" fill="#4A3FFF"/>
<path fill-rule="evenodd" clip-rule="evenodd" d="M0.00198824 17.654V20.423C0.0018567 21.287 0.171986 22.1426 0.502652 22.9408C0.833318 23.739 1.31804 24.4642 1.92911 25.075C2.54019 25.6858 3.26564 26.1702 4.064 26.5005C4.86237 26.8308 5.718 27.0005 6.58199 27H9.35199C9.62184 26.9916 9.87783 26.8786 10.0658 26.6847C10.2537 26.4909 10.3588 26.2315 10.3588 25.9615C10.3588 25.6915 10.2537 25.4322 10.0658 25.2383C9.87783 25.0445 9.62184 24.9314 9.35199 24.923H6.57799C5.38451 24.923 4.23992 24.4489 3.39601 23.605C2.55209 22.7611 2.07799 21.6165 2.07799 20.423V17.654C2.0823 17.5149 2.05864 17.3764 2.00839 17.2466C1.95814 17.1168 1.88234 16.9985 1.78548 16.8986C1.68862 16.7987 1.57268 16.7192 1.44453 16.665C1.31638 16.6107 1.17864 16.5828 1.03949 16.5828C0.900332 16.5828 0.762594 16.6107 0.634447 16.665C0.5063 16.7192 0.390357 16.7987 0.293496 16.8986C0.196636 16.9985 0.120833 17.1168 0.0705863 17.2466C0.0203391 17.3764 -0.00232837 17.5149 0.00198824 17.654Z" fill="#4A3FFF"/>
<path fill-rule="evenodd" clip-rule="evenodd" d="M17.654 27H20.423C21.2871 27.0001 22.1427 26.83 22.941 26.4992C23.7392 26.1685 24.4645 25.6837 25.0753 25.0725C25.6861 24.4613 26.1705 23.7358 26.5007 22.9373C26.831 22.1388 27.0006 21.2831 27 20.419V17.652C26.9916 17.3822 26.8785 17.1262 26.6847 16.9382C26.4908 16.7503 26.2315 16.6452 25.9615 16.6452C25.6915 16.6452 25.4321 16.7503 25.2383 16.9382C25.0444 17.1262 24.9314 17.3822 24.923 17.652V20.421C24.923 21.6145 24.4489 22.7591 23.605 23.603C22.761 24.4469 21.6165 24.921 20.423 24.921H17.654C17.3786 24.921 17.1144 25.0304 16.9196 25.2252C16.7249 25.4199 16.6155 25.6841 16.6155 25.9595C16.6155 26.2349 16.7249 26.4991 16.9196 26.6938C17.1144 26.8886 17.3786 26.998 17.654 26.998V27Z" fill="#4A3FFF"/>
<path fill-rule="evenodd" clip-rule="evenodd" d="M17.308 8.652V10.036C17.308 10.3114 17.4174 10.5756 17.6122 10.7703C17.8069 10.9651 18.0711 11.0745 18.3465 11.0745C18.6219 11.0745 18.8861 10.9651 19.0808 10.7703C19.2756 10.5756 19.385 10.3114 19.385 10.036V8.652C19.3766 8.38215 19.2635 8.12616 19.0697 7.93824C18.8758 7.75032 18.6165 7.64523 18.3465 7.64523C18.0765 7.64523 17.8171 7.75032 17.6233 7.93824C17.4294 8.12616 17.3164 8.38215 17.308 8.652Z" fill="#4A3FFF"/>
<path fill-rule="evenodd" clip-rule="evenodd" d="M7.61697 8.652V10.036C7.61697 10.3114 7.72639 10.5756 7.92114 10.7703C8.1159 10.9651 8.38005 11.0745 8.65547 11.0745C8.9309 11.0745 9.19505 10.9651 9.3898 10.7703C9.58456 10.5756 9.69397 10.3114 9.69397 10.036V8.652C9.6856 8.38215 9.57252 8.12616 9.37867 7.93824C9.18483 7.75032 8.92545 7.64523 8.65547 7.64523C8.38549 7.64523 8.12612 7.75032 7.93227 7.93824C7.73843 8.12616 7.62535 8.38215 7.61697 8.652Z" fill="#4A3FFF"/>
<path fill-rule="evenodd" clip-rule="evenodd" d="M13.155 14.242V10.731C13.1507 10.5919 13.1744 10.4534 13.2246 10.3236C13.2748 10.1938 13.3506 10.0755 13.4475 9.97558C13.5444 9.87566 13.6603 9.79623 13.7885 9.74198C13.9166 9.68773 14.0543 9.65977 14.1935 9.65977C14.3327 9.65977 14.4704 9.68773 14.5985 9.74198C14.7267 9.79623 14.8426 9.87566 14.9395 9.97558C15.0364 10.0755 15.1122 10.1938 15.1624 10.3236C15.2127 10.4534 15.2363 10.5919 15.232 10.731V14.884C15.2314 15.0769 15.1774 15.2658 15.0759 15.4298C14.9744 15.5938 14.8294 15.7265 14.657 15.813L13.272 16.503C13.0256 16.6259 12.7405 16.6459 12.4793 16.5587C12.2182 16.4714 12.0024 16.2839 11.8795 16.0375C11.7566 15.7911 11.7366 15.506 11.8239 15.2448C11.9112 14.9837 12.0986 14.7679 12.345 14.645L13.155 14.242Z" fill="#4A3FFF"/>
<path fill-rule="evenodd" clip-rule="evenodd" d="M17.613 17.612C17.7094 17.5156 17.8238 17.4391 17.9497 17.387C18.0757 17.3348 18.2107 17.308 18.347 17.308C18.4833 17.308 18.6183 17.3348 18.7442 17.387C18.8702 17.4391 18.9846 17.5156 19.081 17.612C19.1774 17.7084 19.2538 17.8228 19.306 17.9488C19.3582 18.0747 19.385 18.2097 19.385 18.346C19.385 18.4823 19.3582 18.6173 19.306 18.7432C19.2538 18.8692 19.1774 18.9836 19.081 19.08C17.6015 20.5593 15.5951 21.3903 13.503 21.3903C11.4109 21.3903 9.40442 20.5593 7.92497 19.08C7.73031 18.8853 7.62094 18.6213 7.62094 18.346C7.62094 18.0707 7.73031 17.8067 7.92497 17.612C8.11964 17.4173 8.38367 17.308 8.65897 17.308C8.93428 17.308 9.1983 17.4173 9.39297 17.612C10.4829 18.7018 11.9611 19.3141 13.5025 19.3141C15.0438 19.3141 16.523 18.7018 17.613 17.612Z" fill="#4A3FFF"/>
</g>
<defs>
<clipPath id="clip0_230_39">
<rect width="27" height="27" fill="white"/>
</clipPath>
</defs>
</svg>
