<svg width="28" height="27" viewBox="0 0 28 27" fill="none" xmlns="http://www.w3.org/2000/svg">
<g clip-path="url(#clip0_230_49)">
<path d="M0.0360163 14.51C-0.19403 11.3917 0.666601 8.29041 2.47067 5.73662C4.27475 3.18283 6.91015 1.33526 9.92602 0.509997L10.112 0.458997C12.0041 -0.0499079 13.9849 -0.137674 15.9146 0.201881C17.8443 0.541437 19.6761 1.30005 21.2808 2.42427C22.8856 3.54849 24.2243 5.01096 25.2026 6.70863C26.1809 8.40629 26.775 10.2978 26.943 12.25C26.979 12.657 27.004 13.061 27.023 13.465C27.032 13.6753 26.957 13.8805 26.8147 14.0356C26.6724 14.1907 26.4743 14.2829 26.264 14.292C26.159 14.2998 26.0536 14.2861 25.9541 14.2517C25.8546 14.2174 25.7631 14.1632 25.6853 14.0923C25.6074 14.0215 25.5448 13.9356 25.5013 13.8397C25.4577 13.7439 25.4342 13.6402 25.432 13.535C25.4167 13.1537 25.3923 12.7703 25.359 12.385C25.2098 10.6641 24.6852 8.99687 23.8221 7.50061C22.959 6.00436 21.7785 4.71546 20.3635 3.72467C18.9486 2.73388 17.3337 2.06527 15.6325 1.76592C13.9313 1.46656 12.1852 1.54373 10.517 1.992L10.329 2.043C7.6685 2.7711 5.3438 4.40135 3.75287 6.65467C2.16195 8.90798 1.40373 11.6442 1.60802 14.395C1.62258 14.605 1.55312 14.8123 1.41491 14.9711C1.2767 15.1299 1.08106 15.2274 0.871016 15.242H0.815016C0.617041 15.2386 0.427496 15.1613 0.283564 15.0253C0.139632 14.8893 0.0516995 14.7045 0.0370162 14.507L0.0360163 14.51ZM21.189 24.175C21.2872 24.2108 21.3914 24.2269 21.4958 24.2224C21.6002 24.2178 21.7027 24.1927 21.7973 24.1485C21.892 24.1043 21.977 24.0418 22.0475 23.9647C22.1179 23.8876 22.1725 23.7973 22.208 23.699C23.566 20.1348 24.1036 16.3105 23.781 12.51C23.6499 11.0218 23.1944 9.58042 22.4467 8.28706C21.699 6.9937 20.6771 5.87977 19.4529 5.02353C18.2287 4.16729 16.8318 3.58951 15.3604 3.3308C13.8891 3.07209 12.3789 3.13871 10.936 3.526L10.746 3.577C8.44232 4.2086 6.42978 5.62126 5.05285 7.57318C3.67593 9.5251 3.02024 11.8949 3.19802 14.277C3.28155 15.3735 3.03012 16.4695 2.47702 17.42L1.57702 18.98C1.47173 19.1625 1.44323 19.3793 1.49781 19.5828C1.55238 19.7862 1.68555 19.9597 1.86802 20.065C2.05048 20.1703 2.26731 20.1988 2.47078 20.1442C2.67426 20.0896 2.84773 19.9565 2.95302 19.774L3.85302 18.21C4.56425 16.985 4.88876 15.5736 4.78402 14.161C4.63273 12.148 5.18522 10.1448 6.34708 8.49399C7.50893 6.84314 9.20803 5.647 11.154 5.11L11.344 5.059C12.5633 4.7323 13.8394 4.67673 15.0825 4.89618C16.3256 5.11563 17.5056 5.60478 18.5393 6.32922C19.5731 7.05367 20.4356 7.99581 21.0661 9.08938C21.6967 10.1829 22.0799 11.4014 22.189 12.659C22.4909 16.2257 21.985 19.8147 20.709 23.159C20.6731 23.257 20.6569 23.361 20.6612 23.4653C20.6656 23.5695 20.6904 23.6719 20.7343 23.7665C20.7783 23.8612 20.8404 23.9462 20.9172 24.0168C20.994 24.0874 21.084 24.1422 21.182 24.178L21.189 24.175ZM16.529 26.444C16.7113 26.5487 16.9277 26.5769 17.1307 26.5224C17.3337 26.4678 17.5068 26.335 17.612 26.153C19.9456 22.1059 20.9955 17.4458 20.623 12.789C20.5321 11.7636 20.218 10.7706 19.7025 9.87958C19.1871 8.98855 18.4829 8.22112 17.6394 7.63117C16.7959 7.04121 15.8334 6.64301 14.8196 6.46453C13.8059 6.28605 12.7653 6.3316 11.771 6.598L11.581 6.648C9.99029 7.08959 8.6022 8.06972 7.65381 9.421C6.70541 10.7723 6.25554 12.4109 6.38102 14.057C6.50719 15.7857 6.10808 17.5121 5.23602 19.01L3.59902 21.835C3.53629 21.9251 3.49293 22.0272 3.47168 22.1349C3.45043 22.2427 3.45175 22.3536 3.47555 22.4608C3.49936 22.568 3.54513 22.669 3.60998 22.7576C3.67483 22.8462 3.75734 22.9204 3.85231 22.9755C3.94728 23.0306 4.05264 23.0653 4.16174 23.0776C4.27084 23.0899 4.3813 23.0795 4.48615 23.0469C4.59099 23.0144 4.68795 22.9604 4.77089 22.8885C4.85383 22.8165 4.92095 22.7282 4.96802 22.629L6.59702 19.802C7.62617 18.0268 8.09531 15.9823 7.94302 13.936C7.84255 12.6577 8.18935 11.3842 8.9241 10.3333C9.65886 9.28243 10.7359 8.5195 11.971 8.175L12.161 8.124C12.9313 7.91732 13.7374 7.88165 14.5229 8.0195C15.3083 8.15735 16.0541 8.46538 16.708 8.92197C17.3618 9.37857 17.9078 9.97268 18.3078 10.6626C18.7077 11.3526 18.9518 12.1217 19.023 12.916C19.3732 17.2501 18.4004 21.5885 16.233 25.358C16.1278 25.5401 16.0991 25.7565 16.1533 25.9598C16.2075 26.163 16.3401 26.3364 16.522 26.442L16.529 26.444ZM12.6 26.895C12.7824 27.0001 12.999 27.0284 13.2022 26.9739C13.4055 26.9193 13.5788 26.7863 13.684 26.604L14.857 24.565C16.8655 21.0796 17.769 17.0668 17.448 13.057C17.3968 12.4936 17.2229 11.9482 16.9386 11.4591C16.6543 10.97 16.2664 10.549 15.8022 10.2257C15.338 9.90228 14.8087 9.68436 14.2514 9.58716C13.6941 9.48996 13.1223 9.51585 12.576 9.663L12.388 9.713C11.5076 9.96172 10.741 10.5086 10.2193 11.2602C9.69757 12.0117 9.45322 12.9212 9.52802 13.833C9.70149 16.1923 9.15995 18.5491 7.97402 20.596L6.08402 23.869C6.02983 23.9594 5.99417 24.0596 5.97912 24.1639C5.96407 24.2682 5.96993 24.3744 5.99636 24.4764C6.02278 24.5784 6.06924 24.6742 6.13304 24.758C6.19683 24.8419 6.27668 24.9122 6.36793 24.9649C6.45918 25.0176 6.56 25.0516 6.66452 25.0649C6.76905 25.0783 6.87518 25.0707 6.97673 25.0426C7.07828 25.0145 7.17323 24.9664 7.25603 24.9013C7.33883 24.8361 7.40783 24.7551 7.45902 24.663L9.34902 21.392C10.6972 19.0673 11.3133 16.3902 11.117 13.71C11.0622 13.1665 11.2009 12.621 11.5088 12.1697C11.8167 11.7184 12.2739 11.3902 12.8 11.243L12.986 11.193C13.3083 11.1062 13.6456 11.0909 13.9744 11.148C14.3032 11.2052 14.6155 11.3335 14.8896 11.524C15.1636 11.7145 15.3927 11.9626 15.5608 12.2509C15.729 12.5392 15.8321 12.8607 15.863 13.193C16.1597 16.88 15.3298 20.5701 13.483 23.775L12.306 25.81C12.2025 25.9913 12.1746 26.2061 12.2283 26.4079C12.282 26.6097 12.4131 26.7821 12.593 26.888L12.6 26.895ZM14.309 13.572C14.2884 13.3646 14.1899 13.1728 14.0335 13.0351C13.8771 12.8975 13.6743 12.8242 13.466 12.83C13.3619 12.8366 13.2602 12.8637 13.1666 12.9096C13.0729 12.9556 12.9893 13.0195 12.9204 13.0978C12.8515 13.1761 12.7987 13.2672 12.765 13.3659C12.7313 13.4646 12.7174 13.5689 12.724 13.673C12.9185 16.6461 12.2259 19.61 10.734 22.189L8.98702 25.227C8.93024 25.3174 8.89227 25.4183 8.87537 25.5237C8.85848 25.6291 8.863 25.7368 8.88868 25.8404C8.91436 25.944 8.96066 26.0413 9.02482 26.1266C9.08898 26.2119 9.16968 26.2834 9.26209 26.3368C9.3545 26.3902 9.45674 26.4245 9.56268 26.4375C9.66862 26.4504 9.77609 26.442 9.87868 26.4125C9.98126 26.383 10.0768 26.3331 10.1597 26.2659C10.2426 26.1986 10.3111 26.1153 10.361 26.021L12.104 22.983C13.7531 20.1327 14.5188 16.857 14.304 13.571L14.309 13.572Z" fill="#4A3FFF"/>
</g>
<defs>
<clipPath id="clip0_230_49">
<rect width="27.023" height="27.001" fill="white"/>
</clipPath>
</defs>
</svg>
