<svg width="18" height="18" viewBox="0 0 18 18" fill="none" xmlns="http://www.w3.org/2000/svg">
<path d="M9 3.42857C5.56091 3.42857 2.44216 5.5329 0.140841 8.95088C-0.0469469 9.2309 -0.0469469 9.62212 0.140841 9.90215C2.44216 13.3242 5.56091 15.4286 9 15.4286C12.4391 15.4286 15.5578 13.3242 17.8592 9.90627C18.0469 9.62624 18.0469 9.23502 17.8592 8.955C15.5578 5.5329 12.4391 3.42857 9 3.42857ZM9.2467 13.6537C6.96379 13.8143 5.07855 11.71 5.22215 9.15266C5.33998 7.04422 6.86806 5.33523 8.7533 5.20345C11.0362 5.04285 12.9214 7.14717 12.7778 9.70448C12.6563 11.8088 11.1283 13.5178 9.2467 13.6537ZM9.13256 11.7017C7.90273 11.7882 6.88647 10.6558 6.96747 9.28032C7.03007 8.14374 7.85486 7.22541 8.87113 7.15129C10.101 7.06481 11.1172 8.19727 11.0362 9.5727C10.9699 10.7134 10.1451 11.6317 9.13256 11.7017Z" fill="#B2B2B2"/>
<path fill-rule="evenodd" clip-rule="evenodd" d="M1.57141 2L15.9037 16.3323Z" fill="#B2B2B2"/>
<path d="M1.57141 2L15.9037 16.3323" stroke="#B2B2B2" stroke-width="1.5" stroke-linecap="square"/>
</svg>
