<svg width="15" height="16" viewBox="0 0 15 16" fill="none" xmlns="http://www.w3.org/2000/svg">
<path d="M5.23798 14.8986V12.4719C5.23798 11.8525 5.74119 11.3503 6.36192 11.3503H8.63101C8.9291 11.3503 9.21497 11.4685 9.42575 11.6789C9.63653 11.8892 9.75495 12.1745 9.75495 12.4719V14.8986C9.75306 15.1561 9.85426 15.4037 10.0361 15.5865C10.2179 15.7693 10.4653 15.872 10.7234 15.872H12.2714C12.9945 15.8739 13.6885 15.5886 14.2004 15.0791C14.7123 14.5696 15 13.8777 15 13.1562V6.24316C15 5.66034 14.7411 5.1075 14.2931 4.73357L9.02686 0.536371C8.11079 -0.199542 6.79825 -0.175781 5.90952 0.592804L0.763431 4.73357C0.294269 5.09647 0.0138571 5.65095 0 6.24316V13.1491C0 14.653 1.22162 15.872 2.72856 15.872H4.24128C4.77728 15.872 5.21289 15.4405 5.21678 14.9056L5.23798 14.8986Z" fill="#898686"/>
</svg>
