<svg width="24" height="28" viewBox="0 0 24 28" fill="none" xmlns="http://www.w3.org/2000/svg">
<path d="M4.74445 1.59962C6.37124 1.07141 10.9849 2.9438 11.5759 3.6174C12.1631 4.28755 8.33009 4.56456 6.24908 4.87297C4.10183 5.196 1.96017 5.58184 1.37475 4.90609C0.789761 4.23981 3.11982 2.13127 4.74445 1.59962Z" fill="white"/>
<path d="M15.9409 0.425338C17.8 -0.117497 22.7853 2.11492 23.3875 2.87541C23.9837 3.64535 19.6969 3.8372 17.3569 4.1198C14.9348 4.40971 12.5088 4.77361 11.9122 4.0071C11.3118 3.24662 14.0883 0.962581 15.9422 0.425338" fill="white"/>
<path d="M5.02915 3.509C6.14622 2.77432 10.9539 3.52577 11.7643 3.98731C12.5824 4.44498 9.48238 5.37193 7.87151 6.00509C6.21504 6.66019 4.59213 7.37852 3.77616 6.90967C2.95503 6.45373 3.91682 4.25099 5.03001 3.509" fill="white"/>
<path d="M9.53616 0.0175654C11.1625 0.163382 12.874 3.00832 12.7153 3.68234C12.5622 4.3525 9.55466 3.31673 7.78378 2.86465C5.95999 2.40096 4.07857 1.99104 4.24116 1.32088C4.39816 0.643417 7.90594 -0.126531 9.53616 0.0175654Z" fill="white"/>
<path d="M15.1065 3.19844C16.7388 3.33866 18.4486 6.18575 18.2895 6.85762C18.1308 7.53165 15.1249 6.49373 13.3541 6.04337C11.5354 5.58183 9.64843 5.16632 9.81102 4.49444C9.96501 3.82257 13.4801 3.05649 15.1065 3.19973" fill="white"/>
<path d="M0 22.1895C0 26.2461 5.79741 27.4277 11.9991 27.4277C18.2004 27.4277 24 26.2461 24 22.1895C24 18.1406 18.2009 6.04553 11.9991 6.04553C5.79741 6.04553 0 18.141 0 22.1895Z" fill="white"/>
<path d="M15.4839 6.19355C15.484 6.39692 15.4468 6.59832 15.3746 6.78623C15.3024 6.97414 15.1965 7.14488 15.063 7.28868C14.9295 7.43248 14.771 7.54653 14.5965 7.62431C14.422 7.70208 14.235 7.74205 14.0462 7.74194H9.95379C9.57249 7.74194 9.20681 7.57881 8.9372 7.28843C8.66758 6.99805 8.51611 6.60421 8.51611 6.19355C8.51611 5.78289 8.66758 5.38905 8.9372 5.09868C9.20681 4.8083 9.57249 4.64516 9.95379 4.64516H14.0458C14.2346 4.64511 14.4216 4.68511 14.5961 4.7629C14.7706 4.84069 14.9291 4.95474 15.0626 5.09852C15.1962 5.24231 15.3021 5.41302 15.3744 5.60091C15.4467 5.7888 15.4839 5.99018 15.4839 6.19355Z" fill="#845939"/>
<path d="M14.8294 17.5999C14.3532 17.0919 13.696 16.7521 13.0719 16.4699C12.4219 16.174 11.4803 15.9327 11.0666 15.2956C10.7194 14.7623 11.1977 14.2027 11.6851 14.0401C12.4697 13.7764 13.4375 14.0938 14.1261 14.4814C14.4694 14.6732 14.8316 14.4853 14.9623 14.1416C15.1064 13.7613 15.2505 13.3807 15.3925 13.0009C15.4793 12.7699 15.3391 12.4744 15.1327 12.3582C14.5068 12.0111 13.8547 11.821 13.1661 11.7307V10.5676C13.1661 10.2574 12.9075 9.99892 12.5974 9.99892H11.5247C11.2162 9.99892 10.956 10.2574 10.956 10.5676V11.8666C9.89443 12.1728 8.92705 12.8563 8.55024 13.942C8.13129 15.1438 8.38593 16.3882 9.27761 17.2984C9.75592 17.7879 10.402 18.1092 11.0154 18.3875C11.7075 18.6998 12.5587 18.9247 13.0056 19.5914C13.4839 20.3042 12.8654 21.0075 12.197 21.2092C11.2997 21.4785 10.2123 21.0746 9.4587 20.6053C9.12835 20.3988 8.74424 20.6109 8.62423 20.9451L8.20871 22.1026C8.12011 22.3499 8.26764 22.6123 8.47067 22.7448C9.18169 23.2102 9.99766 23.4407 10.8338 23.5371V24.7613C10.8338 24.9277 10.8949 25.0551 10.9853 25.1454C10.9908 25.1514 10.9964 25.1566 10.9999 25.1622C11.005 25.1675 11.0106 25.1724 11.0167 25.1768C11.107 25.2693 11.2343 25.3299 11.4008 25.3299H12.492C12.6423 25.3286 12.7859 25.2682 12.892 25.1618C12.9981 25.0554 13.0581 24.9115 13.059 24.7613V23.4098C14.2388 23.07 15.1507 22.3078 15.6105 21.124C16.082 19.9166 15.6811 18.5114 14.8264 17.5995" fill="#25333A"/>
<path d="M14.8294 16.8145C14.3532 16.3086 13.696 15.9688 13.0719 15.6866C12.4219 15.3907 11.4803 15.1494 11.0666 14.5106C10.7194 13.9807 11.1977 13.4194 11.6851 13.2551C12.4697 12.9931 13.4375 13.3088 14.1261 13.6964C14.4694 13.8904 14.8316 13.6998 14.9623 13.3566C15.1064 12.9763 15.2505 12.5978 15.3925 12.2176C15.4793 11.9849 15.3391 11.6894 15.1327 11.575C14.5068 11.2261 13.8547 11.0377 13.1661 10.9457V9.78256C13.1661 9.47416 12.9075 9.21564 12.5974 9.21564H11.5247C11.2162 9.21564 10.956 9.47416 10.956 9.78256V11.0816C9.89443 11.3883 8.92705 12.0731 8.55024 13.1587C8.13129 14.3605 8.38593 15.6049 9.27761 16.5134C9.75592 17.0029 10.402 17.3259 11.0154 17.6025C11.7075 17.9148 12.5587 18.1397 13.0056 18.8064C13.4839 19.5187 12.8654 20.2225 12.197 20.4255C11.2997 20.6952 10.2123 20.2913 9.4587 19.8203C9.12835 19.6151 8.74424 19.8276 8.62423 20.1601L8.20871 21.3193C8.12011 21.5645 8.26764 21.829 8.47067 21.9615C9.18169 22.4252 9.99766 22.6575 10.8338 22.7538V23.978C10.8338 24.1423 10.8949 24.2701 10.9853 24.3621C10.9908 24.3681 10.9964 24.3733 10.9999 24.3789C11.0059 24.3833 11.0115 24.3881 11.0167 24.3935C11.107 24.4838 11.2343 24.5449 11.4008 24.5449H12.492C12.6419 24.5436 12.7853 24.4835 12.8913 24.3775C12.9973 24.2716 13.0575 24.1283 13.059 23.9784V22.6252C14.2388 22.2858 15.1507 21.5249 15.6105 20.3399C16.082 19.1329 15.6811 17.7259 14.8264 16.814" fill="#25333A"/>
</svg>
