<svg width="54" height="42" viewBox="0 0 54 42" fill="none" xmlns="http://www.w3.org/2000/svg">
<path d="M19.6801 3.56747H34.2664V29.7913H19.6801V3.56747Z" fill="#FF5F00"/>
<path d="M20.6063 16.6795C20.6063 11.3514 23.1067 6.62545 26.95 3.56747C24.1256 1.34358 20.5601 0 16.6704 0C7.45516 0 0 7.45933 0 16.6795C0 25.8994 7.45516 33.359 16.6702 33.359C20.5599 33.359 24.1253 32.0154 26.95 29.7913C23.1067 26.7798 20.6063 22.0076 20.6063 16.6795Z" fill="#EB001B"/>
<path d="M53.9465 16.6795C53.9465 25.8994 46.4913 33.359 37.2763 33.359C33.3866 33.359 29.8211 32.0154 26.9965 29.7913C30.8861 26.7335 33.3404 22.0076 33.3404 16.6795C33.3404 11.3514 30.8397 6.62545 26.9965 3.56747C29.8209 1.34358 33.3866 0 37.2763 0C46.4913 0 53.9467 7.50576 53.9467 16.6795H53.9465Z" fill="#F79E1B"/>
</svg>
