<svg width="15" height="16" viewBox="0 0 15 16" fill="none" xmlns="http://www.w3.org/2000/svg">
<path d="M7.01871 15.8463C7.31446 15.8394 7.59827 15.7267 7.81994 15.528C8.0416 15.3293 8.18685 15.0575 8.22998 14.7607H5.7605C5.80485 15.0656 5.95689 15.3438 6.18834 15.5435C6.41979 15.7432 6.71488 15.8508 7.01871 15.8463V15.8463Z" fill="#4A3FFF"/>
<path d="M13.9906 12.918L13.831 12.7752C13.3781 12.366 12.9818 11.8967 12.6526 11.38C12.2931 10.667 12.0776 9.88837 12.0188 9.08975V6.73756C12.0169 6.45184 11.9918 6.16677 11.9437 5.88525C11.1484 5.71947 10.4341 5.28007 9.9216 4.64143C9.40912 4.0028 9.12999 3.20417 9.13146 2.38076V2.08079C8.64128 1.83613 8.11464 1.67525 7.57277 1.60463V1.00468C7.57277 0.836094 7.50674 0.67441 7.3892 0.5552C7.27166 0.43599 7.11224 0.369019 6.94601 0.369019C6.77978 0.369019 6.62037 0.43599 6.50283 0.5552C6.38528 0.67441 6.31925 0.836094 6.31925 1.00468V1.62844C5.10597 1.80202 3.99558 2.41492 3.19306 3.35399C2.39055 4.29305 1.95011 5.49487 1.95305 6.73756V9.08975C1.89425 9.88837 1.67877 10.667 1.31925 11.38C0.99572 11.8954 0.605725 12.3646 0.159625 12.7752L0 12.918V14.2608H13.9906V12.918Z" fill="#4A3FFF"/>
<path d="M12.6526 4.76153C13.949 4.76153 15 3.69562 15 2.38076C15 1.0659 13.949 0 12.6526 0C11.3562 0 10.3052 1.0659 10.3052 2.38076C10.3052 3.69562 11.3562 4.76153 12.6526 4.76153Z" fill="#4A3FFF"/>
</svg>
