<svg width="428" height="398" viewBox="0 0 428 398" fill="none" xmlns="http://www.w3.org/2000/svg">
<g clip-path="url(#clip0_8_57)">
<path d="M346.892 233.436C348.738 267.382 282.26 336.408 200.32 310.859C162.211 298.976 165.439 279.252 136.461 253.257C119.188 237.765 94.3708 226.049 87.4685 203.529C81.5058 184.091 85.1622 163.197 95.5003 149.608C118.749 119.045 165.686 98.117 211.932 146.271C258.179 194.425 342.124 145.887 346.892 233.436V233.436Z" fill="url(#paint0_linear_8_57)"/>
<path d="M318.046 146.482C311.954 157.336 298.612 158.827 277.237 156.764C261.162 155.21 246.503 154.008 230.426 145.257C219.174 139.137 210.267 130.856 203.766 122.814C196.721 114.101 186.888 104.157 191.709 94.2789C198.333 80.7084 236.641 69.2792 273.84 87.9699C314.703 108.507 324.005 135.873 318.046 146.482V146.482Z" fill="url(#paint1_linear_8_57)"/>
<path d="M136.2 320.404C121.257 299.535 105.955 277.356 85.921 266.431C65.2561 255.157 61.4449 262.106 60.015 273.151C58.5844 284.198 64.9598 310.371 93.1608 325.263C121.37 340.159 150.181 339.935 136.2 320.404Z" fill="url(#paint2_linear_8_57)"/>
<path d="M352.423 179.436C341.848 181.937 330.664 172.984 330.664 172.984C330.664 172.984 336.633 159.981 347.21 157.489C357.785 154.988 368.966 163.933 368.966 163.933C368.966 163.933 362.997 176.936 352.423 179.436Z" fill="url(#paint3_linear_8_57)"/>
<path d="M369.952 276.98C379.539 283.572 394.185 278.964 394.185 278.964C394.185 278.964 393.278 263.67 383.685 257.083C374.099 250.491 359.459 255.093 359.459 255.093C359.459 255.093 360.365 270.388 369.952 276.98Z" fill="url(#paint4_linear_8_57)"/>
<path d="M44.5687 209.082C54.9619 219.642 74.3976 217.416 74.3976 217.416C74.3976 217.416 76.969 198.067 66.5664 187.513C56.1732 176.953 36.7475 179.173 36.7475 179.173C36.7475 179.173 34.1754 198.522 44.5687 209.082V209.082Z" fill="url(#paint5_linear_8_57)"/>
<path d="M362.729 212.808C358.463 212.808 355.005 216.11 355.005 220.184C355.005 224.257 358.463 227.559 362.729 227.559C366.995 227.559 370.453 224.257 370.453 220.184C370.453 216.11 366.995 212.808 362.729 212.808Z" fill="#666AF6"/>
<path d="M102.612 273.023C96.8623 273.023 92.2013 277.526 92.2013 283.08C92.2013 288.635 96.8623 293.138 102.612 293.138C108.361 293.138 113.022 288.635 113.022 283.08C113.022 277.526 108.361 273.023 102.612 273.023Z" fill="#666AF6"/>
<path d="M96.5422 154.413C92.3551 154.413 88.9609 151.025 88.9609 146.845C88.9609 142.665 92.3551 139.276 96.5422 139.276C100.729 139.276 104.123 142.665 104.123 146.845C104.123 151.025 100.729 154.413 96.5422 154.413Z" fill="#666AF6"/>
<path d="M278.859 136.798C274.964 136.798 271.807 133.646 271.807 129.757C271.807 125.869 274.964 122.717 278.859 122.717C282.754 122.717 285.912 125.869 285.912 129.757C285.912 133.646 282.754 136.798 278.859 136.798Z" fill="#666AF6"/>
<path d="M347.253 293.012C343.75 293.012 340.91 290.177 340.91 286.68C340.91 283.183 343.75 280.348 347.253 280.348C350.756 280.348 353.596 283.183 353.596 286.68C353.596 290.177 350.756 293.012 347.253 293.012Z" fill="#E1E4E5"/>
<path d="M81.9018 243.717C78.2175 243.717 75.2308 240.735 75.2308 237.057C75.2308 233.379 78.2175 230.397 81.9018 230.397C85.5861 230.397 88.5728 233.379 88.5728 237.057C88.5728 240.735 85.5861 243.717 81.9018 243.717Z" fill="#E1E4E5"/>
<path d="M155.1 319.043C153.285 319.043 151.813 317.574 151.813 315.761C151.813 313.949 153.285 312.48 155.1 312.48C156.916 312.48 158.387 313.949 158.387 315.761C158.387 317.574 156.916 319.043 155.1 319.043Z" fill="#E1E4E5"/>
<path d="M313.965 127.599C311.194 127.599 308.948 125.356 308.948 122.59C308.948 119.824 311.194 117.581 313.965 117.581C316.736 117.581 318.982 119.824 318.982 122.59C318.982 125.356 316.736 127.599 313.965 127.599Z" fill="#E1E4E5"/>
<path d="M103.269 197.061C103.738 198.808 102.699 200.605 100.949 201.073C99.198 201.542 97.3985 200.504 96.9294 198.757C96.4603 197.009 97.4992 195.212 99.2499 194.744C101.001 194.276 102.8 195.313 103.269 197.061Z" fill="#E1E4E5"/>
<path d="M150.068 144.135C147.657 144.135 145.702 142.184 145.702 139.777C145.702 137.37 147.657 135.419 150.068 135.419C152.479 135.419 154.433 137.37 154.433 139.777C154.433 142.184 152.479 144.135 150.068 144.135Z" fill="#E1E4E5"/>
<path d="M309.738 211.84C307.883 211.84 306.38 210.639 306.38 209.158C306.38 207.677 307.883 206.476 309.738 206.476C311.592 206.476 313.096 207.677 313.096 209.158C313.096 210.639 311.592 211.84 309.738 211.84Z" fill="#E1E4E5"/>
<path d="M263.513 98.1257C264.489 101.763 262.327 105.502 258.683 106.477C255.04 107.451 251.295 105.293 250.319 101.655C249.342 98.0178 251.505 94.279 255.148 93.3044C258.792 92.3298 262.537 94.4883 263.513 98.1257Z" fill="#E1E4E5"/>
<path d="M387.783 181.852H387.871C388.391 189.211 393.873 189.325 393.873 189.325C393.873 189.325 387.828 189.442 387.828 197.945C387.828 189.442 381.784 189.325 381.784 189.325C381.784 189.325 387.263 189.211 387.783 181.852ZM134.894 80.5419H135.045C135.941 93.4199 145.382 93.6182 145.382 93.6182C145.382 93.6182 134.972 93.8245 134.972 108.704C134.972 93.8245 124.561 93.6182 124.561 93.6182C124.561 93.6182 133.998 93.4199 134.894 80.5419V80.5419Z" fill="#E1E4E5"/>
<path d="M257.601 280.653C257.601 280.653 273.031 277.106 274.603 275.577C276.178 274.058 283.786 266.436 289.494 264.165C295.194 261.896 299.542 265.078 301.032 268.757L295.151 274.194C295.151 274.194 304.497 270.312 308.209 272.862C311.921 275.411 311.13 280.341 311.13 280.341C311.13 280.341 307.286 281.223 305.245 282.341C303.206 283.459 280.873 305.025 241.344 301.715C201.815 298.406 199.635 292.559 199.296 292.106C198.956 291.652 199.308 283.96 199.308 283.96L257.601 280.653V280.653Z" fill="#F8AE9D"/>
<path opacity="0.1" d="M257.601 280.653C257.601 280.653 273.031 277.106 274.603 275.577C276.178 274.058 283.786 266.436 289.494 264.165C295.194 261.896 299.542 265.078 301.032 268.757L295.151 274.194C295.151 274.194 304.497 270.312 308.209 272.862C311.921 275.411 311.13 280.341 311.13 280.341C311.13 280.341 307.286 281.223 305.245 282.341C303.206 283.459 280.873 305.025 241.344 301.715C201.815 298.406 199.635 292.559 199.296 292.106C198.956 291.652 199.308 283.96 199.308 283.96L257.601 280.653V280.653Z" fill="black"/>
<path fill-rule="evenodd" clip-rule="evenodd" d="M160.193 255.162C159.075 255.278 158.092 255.38 157.231 255.421C153.274 255.61 142.74 260.348 142.74 260.348L142.787 260.497C137.138 262.807 134.167 263.865 128.568 265.769C123.556 267.473 104.734 269.711 93.097 270.978C88.2552 271.506 85.129 276.374 86.6991 280.976L99.9926 319.946C101.433 324.168 106.197 326.235 110.263 324.385C123.182 318.507 148.404 307.033 151.765 305.493C153.531 304.684 156.04 304.394 158.448 304.344C160.433 304.591 165.862 305.594 179.763 309.559C188.622 312.085 193.538 315.321 197.755 318.096C202.835 321.438 206.898 324.112 215.611 324.072C215.611 324.072 249.765 318.098 257.75 316.957C265.106 315.901 267.896 314.328 274.547 310.581C275.107 310.265 275.695 309.934 276.315 309.586C279.307 307.911 282.11 306.707 284.862 305.527C288.971 303.763 292.961 302.05 297.285 298.891C301.345 295.932 303.791 295.218 305.234 294.796C306.36 294.467 306.876 294.316 307.072 293.416C307.519 291.363 301.842 285.879 298.147 286.352C294.45 286.826 288.292 289.763 288.292 289.763C288.292 289.763 265.977 298.296 262.245 298.901C260.374 299.208 254.899 299.357 249.435 299.506C244.008 299.654 238.593 299.801 236.733 300.102C233.002 300.714 205.286 293.804 205.286 293.804C206.274 293.662 207.094 293.502 207.671 293.329C209.95 292.647 214.502 293.508 219.605 294.474C223.498 295.211 227.711 296.008 231.48 296.227C237.079 296.558 241.178 296.165 245.729 295.73C248.259 295.488 250.927 295.232 254.071 295.081C262.869 294.654 267.502 290.677 266.566 285.044C265.629 279.411 262.04 277.074 257.804 276.202C253.568 275.33 242.06 273.373 229.789 273.734C220.209 274.021 215.458 270.852 210.588 267.603C209.221 266.691 207.844 265.773 206.348 264.923C199.524 261.045 188.18 257.377 177.959 255.564C169.962 254.146 164.212 254.744 160.193 255.162V255.162Z" fill="#F8AE9D"/>
</g>
<defs>
<linearGradient id="paint0_linear_8_57" x1="267.437" y1="436.915" x2="143.481" y2="-123.266" gradientUnits="userSpaceOnUse">
<stop stop-color="white"/>
<stop offset="1" stop-color="#EEEEEE"/>
</linearGradient>
<linearGradient id="paint1_linear_8_57" x1="277.007" y1="216.826" x2="222.881" y2="-26.7993" gradientUnits="userSpaceOnUse">
<stop stop-color="white"/>
<stop offset="1" stop-color="#EEEEEE"/>
</linearGradient>
<linearGradient id="paint2_linear_8_57" x1="119.515" y1="388.911" x2="70.6485" y2="162.549" gradientUnits="userSpaceOnUse">
<stop stop-color="white"/>
<stop offset="1" stop-color="#EEEEEE"/>
</linearGradient>
<linearGradient id="paint3_linear_8_57" x1="312.602" y1="185.654" x2="405.114" y2="141.875" gradientUnits="userSpaceOnUse">
<stop stop-color="white"/>
<stop offset="1" stop-color="#EEEEEE"/>
</linearGradient>
<linearGradient id="paint4_linear_8_57" x1="407.298" y1="298.611" x2="331.965" y2="219.041" gradientUnits="userSpaceOnUse">
<stop stop-color="white"/>
<stop offset="1" stop-color="#EEEEEE"/>
</linearGradient>
<linearGradient id="paint5_linear_8_57" x1="86.036" y1="245.155" x2="11.0772" y2="127.454" gradientUnits="userSpaceOnUse">
<stop stop-color="white"/>
<stop offset="1" stop-color="#EEEEEE"/>
</linearGradient>
<clipPath id="clip0_8_57">
<rect width="598" height="398" fill="white" transform="translate(-85)"/>
</clipPath>
</defs>
</svg>
