<svg width="20" height="20" viewBox="0 0 20 20" fill="none" xmlns="http://www.w3.org/2000/svg">
<path d="M0 0.625C0 0.45924 0.065848 0.300269 0.183058 0.183058C0.300269 0.065848 0.45924 0 0.625 0L4.375 0C4.54076 0 4.69973 0.065848 4.81694 0.183058C4.93415 0.300269 5 0.45924 5 0.625C5 0.79076 4.93415 0.949732 4.81694 1.06694C4.69973 1.18415 4.54076 1.25 4.375 1.25H1.25V4.375C1.25 4.54076 1.18415 4.69973 1.06694 4.81694C0.949732 4.93415 0.79076 5 0.625 5C0.45924 5 0.300269 4.93415 0.183058 4.81694C0.065848 4.69973 0 4.54076 0 4.375V0.625ZM15 0.625C15 0.45924 15.0658 0.300269 15.1831 0.183058C15.3003 0.065848 15.4592 0 15.625 0L19.375 0C19.5408 0 19.6997 0.065848 19.8169 0.183058C19.9342 0.300269 20 0.45924 20 0.625V4.375C20 4.54076 19.9342 4.69973 19.8169 4.81694C19.6997 4.93415 19.5408 5 19.375 5C19.2092 5 19.0503 4.93415 18.9331 4.81694C18.8158 4.69973 18.75 4.54076 18.75 4.375V1.25H15.625C15.4592 1.25 15.3003 1.18415 15.1831 1.06694C15.0658 0.949732 15 0.79076 15 0.625ZM0.625 15C0.79076 15 0.949732 15.0658 1.06694 15.1831C1.18415 15.3003 1.25 15.4592 1.25 15.625V18.75H4.375C4.54076 18.75 4.69973 18.8158 4.81694 18.9331C4.93415 19.0503 5 19.2092 5 19.375C5 19.5408 4.93415 19.6997 4.81694 19.8169C4.69973 19.9342 4.54076 20 4.375 20H0.625C0.45924 20 0.300269 19.9342 0.183058 19.8169C0.065848 19.6997 0 19.5408 0 19.375V15.625C0 15.4592 0.065848 15.3003 0.183058 15.1831C0.300269 15.0658 0.45924 15 0.625 15ZM19.375 15C19.5408 15 19.6997 15.0658 19.8169 15.1831C19.9342 15.3003 20 15.4592 20 15.625V19.375C20 19.5408 19.9342 19.6997 19.8169 19.8169C19.6997 19.9342 19.5408 20 19.375 20H15.625C15.4592 20 15.3003 19.9342 15.1831 19.8169C15.0658 19.6997 15 19.5408 15 19.375C15 19.2092 15.0658 19.0503 15.1831 18.9331C15.3003 18.8158 15.4592 18.75 15.625 18.75H18.75V15.625C18.75 15.4592 18.8158 15.3003 18.9331 15.1831C19.0503 15.0658 19.2092 15 19.375 15ZM5 5H6.25V6.25H5V5Z" fill="white"/>
<path d="M8.75 2.5H2.5V8.75H8.75V2.5ZM3.75 3.75H7.5V7.5H3.75V3.75ZM6.25 13.75H5V15H6.25V13.75Z" fill="white"/>
<path d="M8.75 11.25H2.5V17.5H8.75V11.25ZM3.75 12.5H7.5V16.25H3.75V12.5ZM13.75 5H15V6.25H13.75V5Z" fill="white"/>
<path d="M11.25 2.5H17.5V8.75H11.25V2.5ZM12.5 3.75V7.5H16.25V3.75H12.5ZM10 10V12.5H11.25V13.75H10V15H12.5V12.5H13.75V15H15V13.75H17.5V12.5H13.75V10H10ZM12.5 12.5H11.25V11.25H12.5V12.5ZM17.5 15H16.25V16.25H13.75V17.5H17.5V15ZM12.5 17.5V16.25H10V17.5H12.5Z" fill="white"/>
<path d="M15 11.25H17.5V10H15V11.25Z" fill="white"/>
</svg>
