<svg width="18" height="13" viewBox="0 0 18 13" fill="none" xmlns="http://www.w3.org/2000/svg">
<path d="M9 0.428572C5.56091 0.428572 2.44216 2.5329 0.140841 5.95088C-0.0469469 6.23091 -0.0469469 6.62212 0.140841 6.90215C2.44216 10.3242 5.56091 12.4286 9 12.4286C12.4391 12.4286 15.5578 10.3242 17.8592 6.90627C18.0469 6.62624 18.0469 6.23502 17.8592 5.955C15.5578 2.5329 12.4391 0.428572 9 0.428572ZM9.2467 10.6537C6.96379 10.8143 5.07855 8.70997 5.22215 6.15266C5.33998 4.04422 6.86806 2.33523 8.7533 2.20345C11.0362 2.04285 12.9214 4.14717 12.7778 6.70448C12.6563 8.80881 11.1283 10.5178 9.2467 10.6537ZM9.13256 8.70174C7.90273 8.78821 6.88647 7.65575 6.96747 6.28032C7.03007 5.14374 7.85486 4.22541 8.87113 4.15129C10.101 4.06481 11.1172 5.19727 11.0362 6.5727C10.9699 7.7134 10.1451 8.63173 9.13256 8.70174Z" fill="#B2B2B2"/>
</svg>
