<svg width="45" height="45" viewBox="0 0 45 45" fill="none" xmlns="http://www.w3.org/2000/svg">
<path d="M45 22.5C45 34.9264 34.9264 45 22.5 45C10.0736 45 0 34.9264 0 22.5C0 10.0736 10.0736 0 22.5 0C34.9264 0 45 10.0736 45 22.5Z" fill="#D9D9D9" fill-opacity="0.2"/>
<path d="M14.5938 14C13.6406 14 12.7265 14.3951 12.0526 15.0983C11.3786 15.8016 11 16.7554 11 17.75V19.7H34V17.75C34 16.7554 33.6214 15.8016 32.9474 15.0983C32.2735 14.3951 31.3594 14 30.4062 14H14.5938ZM11 28.25V21.2H34V28.25C34 29.2446 33.6214 30.1984 32.9474 30.9017C32.2735 31.6049 31.3594 32 30.4062 32H14.5938C13.6406 32 12.7265 31.6049 12.0526 30.9017C11.3786 30.1984 11 29.2446 11 28.25ZM26.6688 26.3C26.4781 26.3 26.2953 26.379 26.1605 26.5197C26.0257 26.6603 25.95 26.8511 25.95 27.05C25.95 27.2489 26.0257 27.4397 26.1605 27.5803C26.2953 27.721 26.4781 27.8 26.6688 27.8H29.8312C30.0219 27.8 30.2047 27.721 30.3395 27.5803C30.4743 27.4397 30.55 27.2489 30.55 27.05C30.55 26.8511 30.4743 26.6603 30.3395 26.5197C30.2047 26.379 30.0219 26.3 29.8312 26.3H26.6688Z" fill="black" fill-opacity="0.8"/>
</svg>
