<svg width="300" height="392" viewBox="0 0 300 392" fill="none" xmlns="http://www.w3.org/2000/svg">
<rect width="300" height="392" fill="#4A3FFF"/>
<path fill-rule="evenodd" clip-rule="evenodd" d="M205.093 173C200.391 198.601 177.961 218 151 218C120.624 218 96 193.376 96 163C96 158.878 96.4534 154.863 97.3129 151H146C148.761 151 151 148.761 151 146C151 143.239 148.761 141 146 141H100.576C109.064 121.575 128.446 108 151 108C181.376 108 206 132.624 206 163H156C153.239 163 151 165.239 151 168C151 170.761 153.239 173 156 173H205.093Z" fill="white"/>
<path d="M97.32 244.4V250.08H106.48V255.36H97.32V261.52H107.68V267H90.48V238.92H107.68V244.4H97.32ZM129.321 250.12V255.8H111.721V250.12H129.321ZM142.164 247.84C142.83 246.8 143.75 245.96 144.924 245.32C146.097 244.68 147.47 244.36 149.044 244.36C150.884 244.36 152.55 244.827 154.044 245.76C155.537 246.693 156.71 248.027 157.564 249.76C158.444 251.493 158.884 253.507 158.884 255.8C158.884 258.093 158.444 260.12 157.564 261.88C156.71 263.613 155.537 264.96 154.044 265.92C152.55 266.853 150.884 267.32 149.044 267.32C147.497 267.32 146.124 267 144.924 266.36C143.75 265.72 142.83 264.893 142.164 263.88V277.64H135.324V244.68H142.164V247.84ZM151.924 255.8C151.924 254.093 151.444 252.76 150.484 251.8C149.55 250.813 148.39 250.32 147.004 250.32C145.644 250.32 144.484 250.813 143.524 251.8C142.59 252.787 142.124 254.133 142.124 255.84C142.124 257.547 142.59 258.893 143.524 259.88C144.484 260.867 145.644 261.36 147.004 261.36C148.364 261.36 149.524 260.867 150.484 259.88C151.444 258.867 151.924 257.507 151.924 255.8ZM161.112 255.8C161.112 253.507 161.539 251.493 162.392 249.76C163.272 248.027 164.459 246.693 165.952 245.76C167.446 244.827 169.112 244.36 170.952 244.36C172.526 244.36 173.899 244.68 175.072 245.32C176.272 245.96 177.192 246.8 177.832 247.84V244.68H184.672V267H177.832V263.84C177.166 264.88 176.232 265.72 175.032 266.36C173.859 267 172.486 267.32 170.912 267.32C169.099 267.32 167.446 266.853 165.952 265.92C164.459 264.96 163.272 263.613 162.392 261.88C161.539 260.12 161.112 258.093 161.112 255.8ZM177.832 255.84C177.832 254.133 177.352 252.787 176.392 251.8C175.459 250.813 174.312 250.32 172.952 250.32C171.592 250.32 170.432 250.813 169.472 251.8C168.539 252.76 168.072 254.093 168.072 255.8C168.072 257.507 168.539 258.867 169.472 259.88C170.432 260.867 171.592 261.36 172.952 261.36C174.312 261.36 175.459 260.867 176.392 259.88C177.352 258.893 177.832 257.547 177.832 255.84ZM212.421 244.68L198.421 277.6H191.061L196.181 266.24L187.101 244.68H194.741L199.901 258.64L205.021 244.68H212.421Z" fill="white"/>
</svg>
